<?xml version="1.0" encoding="UTF-8"?>
<svg xmlns="http://www.w3.org/2000/svg" xmlns:xlink="http://www.w3.org/1999/xlink" width="210mm" height="297mm" viewBox="0 0 210 297">
<path fill="none" stroke-width="1" stroke-linecap="butt" stroke-linejoin="miter" stroke="rgb(0%, 0%, 100%)" stroke-opacity="1" stroke-miterlimit="10" d="M 30 20 L 30 37.320312 L 15 45.980469 L 20 54.640625 L 40 54.640625 L 45 45.980469 L 60 54.640625 L 75 45.980469 L 70 37.320312 L 60 37.320312 L 60 20 L 45 11.339844 L 40 20 Z M 30 20 "/>
<path fill="none" stroke-width="1" stroke-linecap="butt" stroke-linejoin="miter" stroke="rgb(100%, 0%, 0%)" stroke-opacity="1" stroke-miterlimit="10" d="M 48.847656 37.320312 C 48.847656 41.9375 41.921875 41.9375 41.921875 37.320312 C 41.921875 32.703125 48.847656 32.703125 48.847656 37.320312 "/>
<path fill="none" stroke-width="1" stroke-linecap="butt" stroke-linejoin="miter" stroke="rgb(0%, 0%, 100%)" stroke-opacity="1" stroke-miterlimit="10" d="M 30 54.640625 L 30 71.960938 L 15 80.621094 L 20 89.28125 L 40 89.28125 L 45 80.621094 L 60 89.28125 L 75 80.621094 L 70 71.960938 L 60 71.960938 L 60 54.640625 L 45 45.980469 L 40 54.640625 Z M 30 54.640625 "/>
<path fill="none" stroke-width="1" stroke-linecap="butt" stroke-linejoin="miter" stroke="rgb(100%, 0%, 0%)" stroke-opacity="1" stroke-miterlimit="10" d="M 48.847656 71.960938 C 48.847656 76.582031 41.921875 76.582031 41.921875 71.960938 C 41.921875 67.34375 48.847656 67.34375 48.847656 71.960938 "/>
<path fill="none" stroke-width="1" stroke-linecap="butt" stroke-linejoin="miter" stroke="rgb(0%, 0%, 100%)" stroke-opacity="1" stroke-miterlimit="10" d="M 30 89.28125 L 30 106.601562 L 15 115.261719 L 20 123.921875 L 40 123.921875 L 45 115.261719 L 60 123.921875 L 75 115.261719 L 70 106.601562 L 60 106.601562 L 60 89.28125 L 45 80.621094 L 40 89.28125 Z M 30 89.28125 "/>
<path fill="none" stroke-width="1" stroke-linecap="butt" stroke-linejoin="miter" stroke="rgb(100%, 0%, 0%)" stroke-opacity="1" stroke-miterlimit="10" d="M 48.847656 106.601562 C 48.847656 111.222656 41.921875 111.222656 41.921875 106.601562 C 41.921875 101.984375 48.847656 101.984375 48.847656 106.601562 "/>
<path fill="none" stroke-width="1" stroke-linecap="butt" stroke-linejoin="miter" stroke="rgb(0%, 0%, 100%)" stroke-opacity="1" stroke-miterlimit="10" d="M 30 123.921875 L 30 141.242188 L 15 149.902344 L 20 158.5625 L 40 158.5625 L 45 149.902344 L 60 158.5625 L 75 149.902344 L 70 141.242188 L 60 141.242188 L 60 123.921875 L 45 115.261719 L 40 123.921875 Z M 30 123.921875 "/>
<path fill="none" stroke-width="1" stroke-linecap="butt" stroke-linejoin="miter" stroke="rgb(100%, 0%, 0%)" stroke-opacity="1" stroke-miterlimit="10" d="M 48.847656 141.242188 C 48.847656 145.863281 41.921875 145.863281 41.921875 141.242188 C 41.921875 136.625 48.847656 136.625 48.847656 141.242188 "/>
<path fill="none" stroke-width="1" stroke-linecap="butt" stroke-linejoin="miter" stroke="rgb(0%, 0%, 100%)" stroke-opacity="1" stroke-miterlimit="10" d="M 30 158.5625 L 30 175.882812 L 15 184.542969 L 20 193.207031 L 40 193.207031 L 45 184.542969 L 60 193.207031 L 75 184.542969 L 70 175.882812 L 60 175.882812 L 60 158.5625 L 45 149.902344 L 40 158.5625 Z M 30 158.5625 "/>
<path fill="none" stroke-width="1" stroke-linecap="butt" stroke-linejoin="miter" stroke="rgb(100%, 0%, 0%)" stroke-opacity="1" stroke-miterlimit="10" d="M 48.847656 175.882812 C 48.847656 180.503906 41.921875 180.503906 41.921875 175.882812 C 41.921875 171.265625 48.847656 171.265625 48.847656 175.882812 "/>
<path fill="none" stroke-width="1" stroke-linecap="butt" stroke-linejoin="miter" stroke="rgb(0%, 0%, 100%)" stroke-opacity="1" stroke-miterlimit="10" d="M 30 193.207031 L 30 210.527344 L 15 219.1875 L 20 227.847656 L 40 227.847656 L 45 219.1875 L 60 227.847656 L 75 219.1875 L 70 210.527344 L 60 210.527344 L 60 193.207031 L 45 184.542969 L 40 193.207031 Z M 30 193.207031 "/>
<path fill="none" stroke-width="1" stroke-linecap="butt" stroke-linejoin="miter" stroke="rgb(100%, 0%, 0%)" stroke-opacity="1" stroke-miterlimit="10" d="M 48.847656 210.527344 C 48.847656 215.144531 41.921875 215.144531 41.921875 210.527344 C 41.921875 205.90625 48.847656 205.90625 48.847656 210.527344 "/>
<path fill="none" stroke-width="1" stroke-linecap="butt" stroke-linejoin="miter" stroke="rgb(0%, 0%, 100%)" stroke-opacity="1" stroke-miterlimit="10" d="M 30 227.847656 L 30 245.167969 L 15 253.828125 L 20 262.488281 L 40 262.488281 L 45 253.828125 L 60 262.488281 L 75 253.828125 L 70 245.167969 L 60 245.167969 L 60 227.847656 L 45 219.1875 L 40 227.847656 Z M 30 227.847656 "/>
<path fill="none" stroke-width="1" stroke-linecap="butt" stroke-linejoin="miter" stroke="rgb(100%, 0%, 0%)" stroke-opacity="1" stroke-miterlimit="10" d="M 48.847656 245.167969 C 48.847656 249.785156 41.921875 249.785156 41.921875 245.167969 C 41.921875 240.546875 48.847656 240.546875 48.847656 245.167969 "/>
<path fill="none" stroke-width="1" stroke-linecap="butt" stroke-linejoin="miter" stroke="rgb(0%, 0%, 100%)" stroke-opacity="1" stroke-miterlimit="10" d="M 90 20 L 90 37.320312 L 75 45.980469 L 80 54.640625 L 100 54.640625 L 105 45.980469 L 120 54.640625 L 135 45.980469 L 130 37.320312 L 120 37.320312 L 120 20 L 105 11.339844 L 100 20 Z M 90 20 "/>
<path fill="none" stroke-width="1" stroke-linecap="butt" stroke-linejoin="miter" stroke="rgb(100%, 0%, 0%)" stroke-opacity="1" stroke-miterlimit="10" d="M 108.847656 37.320312 C 108.847656 41.9375 101.921875 41.9375 101.921875 37.320312 C 101.921875 32.703125 108.847656 32.703125 108.847656 37.320312 "/>
<path fill="none" stroke-width="1" stroke-linecap="butt" stroke-linejoin="miter" stroke="rgb(0%, 0%, 100%)" stroke-opacity="1" stroke-miterlimit="10" d="M 90 54.640625 L 90 71.960938 L 75 80.621094 L 80 89.28125 L 100 89.28125 L 105 80.621094 L 120 89.28125 L 135 80.621094 L 130 71.960938 L 120 71.960938 L 120 54.640625 L 105 45.980469 L 100 54.640625 Z M 90 54.640625 "/>
<path fill="none" stroke-width="1" stroke-linecap="butt" stroke-linejoin="miter" stroke="rgb(100%, 0%, 0%)" stroke-opacity="1" stroke-miterlimit="10" d="M 108.847656 71.960938 C 108.847656 76.582031 101.921875 76.582031 101.921875 71.960938 C 101.921875 67.34375 108.847656 67.34375 108.847656 71.960938 "/>
<path fill="none" stroke-width="1" stroke-linecap="butt" stroke-linejoin="miter" stroke="rgb(0%, 0%, 100%)" stroke-opacity="1" stroke-miterlimit="10" d="M 90 89.28125 L 90 106.601562 L 75 115.261719 L 80 123.921875 L 100 123.921875 L 105 115.261719 L 120 123.921875 L 135 115.261719 L 130 106.601562 L 120 106.601562 L 120 89.28125 L 105 80.621094 L 100 89.28125 Z M 90 89.28125 "/>
<path fill="none" stroke-width="1" stroke-linecap="butt" stroke-linejoin="miter" stroke="rgb(100%, 0%, 0%)" stroke-opacity="1" stroke-miterlimit="10" d="M 108.847656 106.601562 C 108.847656 111.222656 101.921875 111.222656 101.921875 106.601562 C 101.921875 101.984375 108.847656 101.984375 108.847656 106.601562 "/>
<path fill="none" stroke-width="1" stroke-linecap="butt" stroke-linejoin="miter" stroke="rgb(0%, 0%, 100%)" stroke-opacity="1" stroke-miterlimit="10" d="M 90 123.921875 L 90 141.242188 L 75 149.902344 L 80 158.5625 L 100 158.5625 L 105 149.902344 L 120 158.5625 L 135 149.902344 L 130 141.242188 L 120 141.242188 L 120 123.921875 L 105 115.261719 L 100 123.921875 Z M 90 123.921875 "/>
<path fill="none" stroke-width="1" stroke-linecap="butt" stroke-linejoin="miter" stroke="rgb(100%, 0%, 0%)" stroke-opacity="1" stroke-miterlimit="10" d="M 108.847656 141.242188 C 108.847656 145.863281 101.921875 145.863281 101.921875 141.242188 C 101.921875 136.625 108.847656 136.625 108.847656 141.242188 "/>
<path fill="none" stroke-width="1" stroke-linecap="butt" stroke-linejoin="miter" stroke="rgb(0%, 0%, 100%)" stroke-opacity="1" stroke-miterlimit="10" d="M 90 158.5625 L 90 175.882812 L 75 184.542969 L 80 193.207031 L 100 193.207031 L 105 184.542969 L 120 193.207031 L 135 184.542969 L 130 175.882812 L 120 175.882812 L 120 158.5625 L 105 149.902344 L 100 158.5625 Z M 90 158.5625 "/>
<path fill="none" stroke-width="1" stroke-linecap="butt" stroke-linejoin="miter" stroke="rgb(100%, 0%, 0%)" stroke-opacity="1" stroke-miterlimit="10" d="M 108.847656 175.882812 C 108.847656 180.503906 101.921875 180.503906 101.921875 175.882812 C 101.921875 171.265625 108.847656 171.265625 108.847656 175.882812 "/>
<path fill="none" stroke-width="1" stroke-linecap="butt" stroke-linejoin="miter" stroke="rgb(0%, 0%, 100%)" stroke-opacity="1" stroke-miterlimit="10" d="M 90 193.207031 L 90 210.527344 L 75 219.1875 L 80 227.847656 L 100 227.847656 L 105 219.1875 L 120 227.847656 L 135 219.1875 L 130 210.527344 L 120 210.527344 L 120 193.207031 L 105 184.542969 L 100 193.207031 Z M 90 193.207031 "/>
<path fill="none" stroke-width="1" stroke-linecap="butt" stroke-linejoin="miter" stroke="rgb(100%, 0%, 0%)" stroke-opacity="1" stroke-miterlimit="10" d="M 108.847656 210.527344 C 108.847656 215.144531 101.921875 215.144531 101.921875 210.527344 C 101.921875 205.90625 108.847656 205.90625 108.847656 210.527344 "/>
<path fill="none" stroke-width="1" stroke-linecap="butt" stroke-linejoin="miter" stroke="rgb(0%, 0%, 100%)" stroke-opacity="1" stroke-miterlimit="10" d="M 90 227.847656 L 90 245.167969 L 75 253.828125 L 80 262.488281 L 100 262.488281 L 105 253.828125 L 120 262.488281 L 135 253.828125 L 130 245.167969 L 120 245.167969 L 120 227.847656 L 105 219.1875 L 100 227.847656 Z M 90 227.847656 "/>
<path fill="none" stroke-width="1" stroke-linecap="butt" stroke-linejoin="miter" stroke="rgb(100%, 0%, 0%)" stroke-opacity="1" stroke-miterlimit="10" d="M 108.847656 245.167969 C 108.847656 249.785156 101.921875 249.785156 101.921875 245.167969 C 101.921875 240.546875 108.847656 240.546875 108.847656 245.167969 "/>
<path fill="none" stroke-width="1" stroke-linecap="butt" stroke-linejoin="miter" stroke="rgb(0%, 0%, 100%)" stroke-opacity="1" stroke-miterlimit="10" d="M 150 20 L 150 37.320312 L 135 45.980469 L 140 54.640625 L 160 54.640625 L 165 45.980469 L 180 54.640625 L 195 45.980469 L 190 37.320312 L 180 37.320312 L 180 20 L 165 11.339844 L 160 20 Z M 150 20 "/>
<path fill="none" stroke-width="1" stroke-linecap="butt" stroke-linejoin="miter" stroke="rgb(100%, 0%, 0%)" stroke-opacity="1" stroke-miterlimit="10" d="M 168.847656 37.320312 C 168.847656 41.9375 161.921875 41.9375 161.921875 37.320312 C 161.921875 32.703125 168.847656 32.703125 168.847656 37.320312 "/>
<path fill="none" stroke-width="1" stroke-linecap="butt" stroke-linejoin="miter" stroke="rgb(0%, 0%, 100%)" stroke-opacity="1" stroke-miterlimit="10" d="M 150 54.640625 L 150 71.960938 L 135 80.621094 L 140 89.28125 L 160 89.28125 L 165 80.621094 L 180 89.28125 L 195 80.621094 L 190 71.960938 L 180 71.960938 L 180 54.640625 L 165 45.980469 L 160 54.640625 Z M 150 54.640625 "/>
<path fill="none" stroke-width="1" stroke-linecap="butt" stroke-linejoin="miter" stroke="rgb(100%, 0%, 0%)" stroke-opacity="1" stroke-miterlimit="10" d="M 168.847656 71.960938 C 168.847656 76.582031 161.921875 76.582031 161.921875 71.960938 C 161.921875 67.34375 168.847656 67.34375 168.847656 71.960938 "/>
<path fill="none" stroke-width="1" stroke-linecap="butt" stroke-linejoin="miter" stroke="rgb(0%, 0%, 100%)" stroke-opacity="1" stroke-miterlimit="10" d="M 150 89.28125 L 150 106.601562 L 135 115.261719 L 140 123.921875 L 160 123.921875 L 165 115.261719 L 180 123.921875 L 195 115.261719 L 190 106.601562 L 180 106.601562 L 180 89.28125 L 165 80.621094 L 160 89.28125 Z M 150 89.28125 "/>
<path fill="none" stroke-width="1" stroke-linecap="butt" stroke-linejoin="miter" stroke="rgb(100%, 0%, 0%)" stroke-opacity="1" stroke-miterlimit="10" d="M 168.847656 106.601562 C 168.847656 111.222656 161.921875 111.222656 161.921875 106.601562 C 161.921875 101.984375 168.847656 101.984375 168.847656 106.601562 "/>
<path fill="none" stroke-width="1" stroke-linecap="butt" stroke-linejoin="miter" stroke="rgb(0%, 0%, 100%)" stroke-opacity="1" stroke-miterlimit="10" d="M 150 123.921875 L 150 141.242188 L 135 149.902344 L 140 158.5625 L 160 158.5625 L 165 149.902344 L 180 158.5625 L 195 149.902344 L 190 141.242188 L 180 141.242188 L 180 123.921875 L 165 115.261719 L 160 123.921875 Z M 150 123.921875 "/>
<path fill="none" stroke-width="1" stroke-linecap="butt" stroke-linejoin="miter" stroke="rgb(100%, 0%, 0%)" stroke-opacity="1" stroke-miterlimit="10" d="M 168.847656 141.242188 C 168.847656 145.863281 161.921875 145.863281 161.921875 141.242188 C 161.921875 136.625 168.847656 136.625 168.847656 141.242188 "/>
<path fill="none" stroke-width="1" stroke-linecap="butt" stroke-linejoin="miter" stroke="rgb(0%, 0%, 100%)" stroke-opacity="1" stroke-miterlimit="10" d="M 150 158.5625 L 150 175.882812 L 135 184.542969 L 140 193.207031 L 160 193.207031 L 165 184.542969 L 180 193.207031 L 195 184.542969 L 190 175.882812 L 180 175.882812 L 180 158.5625 L 165 149.902344 L 160 158.5625 Z M 150 158.5625 "/>
<path fill="none" stroke-width="1" stroke-linecap="butt" stroke-linejoin="miter" stroke="rgb(100%, 0%, 0%)" stroke-opacity="1" stroke-miterlimit="10" d="M 168.847656 175.882812 C 168.847656 180.503906 161.921875 180.503906 161.921875 175.882812 C 161.921875 171.265625 168.847656 171.265625 168.847656 175.882812 "/>
<path fill="none" stroke-width="1" stroke-linecap="butt" stroke-linejoin="miter" stroke="rgb(0%, 0%, 100%)" stroke-opacity="1" stroke-miterlimit="10" d="M 150 193.207031 L 150 210.527344 L 135 219.1875 L 140 227.847656 L 160 227.847656 L 165 219.1875 L 180 227.847656 L 195 219.1875 L 190 210.527344 L 180 210.527344 L 180 193.207031 L 165 184.542969 L 160 193.207031 Z M 150 193.207031 "/>
<path fill="none" stroke-width="1" stroke-linecap="butt" stroke-linejoin="miter" stroke="rgb(100%, 0%, 0%)" stroke-opacity="1" stroke-miterlimit="10" d="M 168.847656 210.527344 C 168.847656 215.144531 161.921875 215.144531 161.921875 210.527344 C 161.921875 205.90625 168.847656 205.90625 168.847656 210.527344 "/>
<path fill="none" stroke-width="1" stroke-linecap="butt" stroke-linejoin="miter" stroke="rgb(0%, 0%, 100%)" stroke-opacity="1" stroke-miterlimit="10" d="M 150 227.847656 L 150 245.167969 L 135 253.828125 L 140 262.488281 L 160 262.488281 L 165 253.828125 L 180 262.488281 L 195 253.828125 L 190 245.167969 L 180 245.167969 L 180 227.847656 L 165 219.1875 L 160 227.847656 Z M 150 227.847656 "/>
<path fill="none" stroke-width="1" stroke-linecap="butt" stroke-linejoin="miter" stroke="rgb(100%, 0%, 0%)" stroke-opacity="1" stroke-miterlimit="10" d="M 168.847656 245.167969 C 168.847656 249.785156 161.921875 249.785156 161.921875 245.167969 C 161.921875 240.546875 168.847656 240.546875 168.847656 245.167969 "/>
</svg>
