<?xml version="1.0" encoding="UTF-8"?>
<svg xmlns="http://www.w3.org/2000/svg" xmlns:xlink="http://www.w3.org/1999/xlink" width="210mm" height="297mm" viewBox="0 0 210 297">
<path fill="none" stroke-width="1" stroke-linecap="butt" stroke-linejoin="miter" stroke="rgb(0%, 0%, 100%)" stroke-opacity="1" stroke-miterlimit="10" d="M 30 20 L 30 40 L 12.679688 50 L 22.679688 67.320312 L 62.679688 67.320312 L 72.679688 50 L 90 60 L 107.320312 50 L 97.320312 32.679688 L 77.320312 32.679688 L 77.320312 12.679688 L 60 2.679688 L 50 20 Z M 30 20 "/>
<path fill="none" stroke-width="1" stroke-linecap="butt" stroke-linejoin="miter" stroke="rgb(100%, 0%, 0%)" stroke-opacity="1" stroke-miterlimit="10" d="M 63.476562 40.90625 C 63.476562 46.238281 55.476562 46.238281 55.476562 40.90625 C 55.476562 35.574219 63.476562 35.574219 63.476562 40.90625 "/>
<path fill="none" stroke-width="1" stroke-linecap="butt" stroke-linejoin="miter" stroke="rgb(0%, 0%, 100%)" stroke-opacity="1" stroke-miterlimit="10" d="M 30 100 L 30 120 L 12.679688 130 L 22.679688 147.320312 L 62.679688 147.320312 L 72.679688 130 L 90 140 L 107.320312 130 L 97.320312 112.679688 L 77.320312 112.679688 L 77.320312 92.679688 L 60 82.679688 L 50 100 Z M 30 100 "/>
<path fill="none" stroke-width="1" stroke-linecap="butt" stroke-linejoin="miter" stroke="rgb(100%, 0%, 0%)" stroke-opacity="1" stroke-miterlimit="10" d="M 63.476562 120.90625 C 63.476562 126.238281 55.476562 126.238281 55.476562 120.90625 C 55.476562 115.574219 63.476562 115.574219 63.476562 120.90625 "/>
<path fill="none" stroke-width="1" stroke-linecap="butt" stroke-linejoin="miter" stroke="rgb(0%, 0%, 100%)" stroke-opacity="1" stroke-miterlimit="10" d="M 30 180 L 30 200 L 12.679688 210 L 22.679688 227.320312 L 62.679688 227.320312 L 72.679688 210 L 90 220 L 107.320312 210 L 97.320312 192.679688 L 77.320312 192.679688 L 77.320312 172.679688 L 60 162.679688 L 50 180 Z M 30 180 "/>
<path fill="none" stroke-width="1" stroke-linecap="butt" stroke-linejoin="miter" stroke="rgb(100%, 0%, 0%)" stroke-opacity="1" stroke-miterlimit="10" d="M 63.476562 200.90625 C 63.476562 206.238281 55.476562 206.238281 55.476562 200.90625 C 55.476562 195.574219 63.476562 195.574219 63.476562 200.90625 "/>
<path fill="none" stroke-width="1" stroke-linecap="butt" stroke-linejoin="miter" stroke="rgb(0%, 0%, 100%)" stroke-opacity="1" stroke-miterlimit="10" d="M 30 260 L 30 280 L 12.679688 290 L 22.679688 307.320312 L 62.679688 307.320312 L 72.679688 290 L 90 300 L 107.320312 290 L 97.320312 272.679688 L 77.320312 272.679688 L 77.320312 252.679688 L 60 242.679688 L 50 260 Z M 30 260 "/>
<path fill="none" stroke-width="1" stroke-linecap="butt" stroke-linejoin="miter" stroke="rgb(100%, 0%, 0%)" stroke-opacity="1" stroke-miterlimit="10" d="M 63.476562 280.90625 C 63.476562 286.238281 55.476562 286.238281 55.476562 280.90625 C 55.476562 275.574219 63.476562 275.574219 63.476562 280.90625 "/>
<path fill="none" stroke-width="1" stroke-linecap="butt" stroke-linejoin="miter" stroke="rgb(0%, 0%, 100%)" stroke-opacity="1" stroke-miterlimit="10" d="M 130 20 L 130 40 L 112.679688 50 L 122.679688 67.320312 L 162.679688 67.320312 L 172.679688 50 L 190 60 L 207.320312 50 L 197.320312 32.679688 L 177.320312 32.679688 L 177.320312 12.679688 L 160 2.679688 L 150 20 Z M 130 20 "/>
<path fill="none" stroke-width="1" stroke-linecap="butt" stroke-linejoin="miter" stroke="rgb(100%, 0%, 0%)" stroke-opacity="1" stroke-miterlimit="10" d="M 163.476562 40.90625 C 163.476562 46.238281 155.476562 46.238281 155.476562 40.90625 C 155.476562 35.574219 163.476562 35.574219 163.476562 40.90625 "/>
<path fill="none" stroke-width="1" stroke-linecap="butt" stroke-linejoin="miter" stroke="rgb(0%, 0%, 100%)" stroke-opacity="1" stroke-miterlimit="10" d="M 130 100 L 130 120 L 112.679688 130 L 122.679688 147.320312 L 162.679688 147.320312 L 172.679688 130 L 190 140 L 207.320312 130 L 197.320312 112.679688 L 177.320312 112.679688 L 177.320312 92.679688 L 160 82.679688 L 150 100 Z M 130 100 "/>
<path fill="none" stroke-width="1" stroke-linecap="butt" stroke-linejoin="miter" stroke="rgb(100%, 0%, 0%)" stroke-opacity="1" stroke-miterlimit="10" d="M 163.476562 120.90625 C 163.476562 126.238281 155.476562 126.238281 155.476562 120.90625 C 155.476562 115.574219 163.476562 115.574219 163.476562 120.90625 "/>
<path fill="none" stroke-width="1" stroke-linecap="butt" stroke-linejoin="miter" stroke="rgb(0%, 0%, 100%)" stroke-opacity="1" stroke-miterlimit="10" d="M 130 180 L 130 200 L 112.679688 210 L 122.679688 227.320312 L 162.679688 227.320312 L 172.679688 210 L 190 220 L 207.320312 210 L 197.320312 192.679688 L 177.320312 192.679688 L 177.320312 172.679688 L 160 162.679688 L 150 180 Z M 130 180 "/>
<path fill="none" stroke-width="1" stroke-linecap="butt" stroke-linejoin="miter" stroke="rgb(100%, 0%, 0%)" stroke-opacity="1" stroke-miterlimit="10" d="M 163.476562 200.90625 C 163.476562 206.238281 155.476562 206.238281 155.476562 200.90625 C 155.476562 195.574219 163.476562 195.574219 163.476562 200.90625 "/>
<path fill="none" stroke-width="1" stroke-linecap="butt" stroke-linejoin="miter" stroke="rgb(0%, 0%, 100%)" stroke-opacity="1" stroke-miterlimit="10" d="M 130 260 L 130 280 L 112.679688 290 L 122.679688 307.320312 L 162.679688 307.320312 L 172.679688 290 L 190 300 L 207.320312 290 L 197.320312 272.679688 L 177.320312 272.679688 L 177.320312 252.679688 L 160 242.679688 L 150 260 Z M 130 260 "/>
<path fill="none" stroke-width="1" stroke-linecap="butt" stroke-linejoin="miter" stroke="rgb(100%, 0%, 0%)" stroke-opacity="1" stroke-miterlimit="10" d="M 163.476562 280.90625 C 163.476562 286.238281 155.476562 286.238281 155.476562 280.90625 C 155.476562 275.574219 163.476562 275.574219 163.476562 280.90625 "/>
<path fill="none" stroke-width="1" stroke-linecap="butt" stroke-linejoin="miter" stroke="rgb(0%, 0%, 100%)" stroke-opacity="1" stroke-miterlimit="10" d="M 230 20 L 230 40 L 212.679688 50 L 222.679688 67.320312 L 262.679688 67.320312 L 272.679688 50 L 290 60 L 307.320312 50 L 297.320312 32.679688 L 277.320312 32.679688 L 277.320312 12.679688 L 260 2.679688 L 250 20 Z M 230 20 "/>
<path fill="none" stroke-width="1" stroke-linecap="butt" stroke-linejoin="miter" stroke="rgb(0%, 0%, 100%)" stroke-opacity="1" stroke-miterlimit="10" d="M 230 100 L 230 120 L 212.679688 130 L 222.679688 147.320312 L 262.679688 147.320312 L 272.679688 130 L 290 140 L 307.320312 130 L 297.320312 112.679688 L 277.320312 112.679688 L 277.320312 92.679688 L 260 82.679688 L 250 100 Z M 230 100 "/>
<path fill="none" stroke-width="1" stroke-linecap="butt" stroke-linejoin="miter" stroke="rgb(0%, 0%, 100%)" stroke-opacity="1" stroke-miterlimit="10" d="M 230 180 L 230 200 L 212.679688 210 L 222.679688 227.320312 L 262.679688 227.320312 L 272.679688 210 L 290 220 L 307.320312 210 L 297.320312 192.679688 L 277.320312 192.679688 L 277.320312 172.679688 L 260 162.679688 L 250 180 Z M 230 180 "/>
<path fill="none" stroke-width="1" stroke-linecap="butt" stroke-linejoin="miter" stroke="rgb(0%, 0%, 100%)" stroke-opacity="1" stroke-miterlimit="10" d="M 230 260 L 230 280 L 212.679688 290 L 222.679688 307.320312 L 262.679688 307.320312 L 272.679688 290 L 290 300 L 307.320312 290 L 297.320312 272.679688 L 277.320312 272.679688 L 277.320312 252.679688 L 260 242.679688 L 250 260 Z M 230 260 "/>
</svg>
